<svg width="28" height="28" viewBox="0 0 28 28" fill="none" xmlns="http://www.w3.org/2000/svg">
<rect width="2" height="26" fill="black"/>
<path d="M2 2V0L26 0L28 2L2 2Z" fill="black"/>
<path d="M8 5H6V3L25 3V5H15.0526L8 5Z" fill="black"/>
<path d="M6 15V13H8L25 13V15L6 15Z" fill="black"/>
<rect x="23" y="5" width="2" height="8" fill="black"/>
<path d="M6 15H8V18H6V16.5V15Z" fill="black"/>
<path d="M23 18H25V25H23V23V18Z" fill="black"/>
<rect x="8" y="18" width="2" height="17" transform="rotate(-90 8 18)" fill="black"/>
<path d="M3 3H4H5V25H3V23V3Z" fill="black"/>
<path d="M5 25V23H22V24V25H5Z" fill="black"/>
<rect x="26" y="2" width="2" height="26" fill="black"/>
<rect y="28" width="2" height="26" transform="rotate(-90 0 28)" fill="black"/>
</svg>
